/* XPM */
static char *result[] = {
/* columns rows colors chars-per-pixel */
"109 119 2 1 ",
"  c black",
". c None",
/* pixels */
".............................................................................................................",
".............................................................................................................",
".............................................................................................................",
".............................................................................................................",
".............................................................................................................",
".............................................................................................................",
".............................................................................................................",
".............................................................................................................",
".............................................................................................................",
".............................................................................................................",
".............................................................................................................",
".............................................................................................................",
".............................................................................................................",
".............................................................................................................",
".............................................................................................................",
".............................................................................................................",
".............................................................................................................",
".............................................................................................................",
".............................................................................................................",
".............................................................................................................",
".............................................................................................................",
".............................................................................................................",
".............................................................................................................",
".............................................................................................................",
".............................................................................................................",
".............................................................................................................",
".............................                                                ................................",
".............................                                                ................................",
".............................                                                ................................",
".............................                                                ................................",
".............................                                                ................................",
".............................      .....................................     ................................",
".............................      .....................................     ................................",
".............................      .....................................     ................................",
".............................      .....................................     ................................",
".............................      .....................................     ................................",
".............................      .....................................     ................................",
".............................      .....                                     ................................",
".............................      .....                                     ................................",
".............................      .....                                     ................................",
".............................      .....                                     ................................",
".............................      .....                                     ................................",
".............................      .....     ................................................................",
".............................      .....     ................................................................",
".............................      .....     ................................................................",
".............................      .....     ................................................................",
".............................      .....     ................................................................",
".............................      .....     ................................................................",
".............................      .....     ................................................................",
".............................      .....     ................................................................",
".............................      .....                       ..............................................",
".............................      .....                         ............................................",
".............................      .....                           ..........................................",
".............................      .....                             ........................................",
".............................      .....                               ......................................",
".............................      .....                                 ....................................",
".............................      ..........................              ..................................",
"..............................     ............................              ................................",
"..............................      .............................              ..............................",
"...............................     ...............................              ............................",
"................................     ...............................             ............................",
"................................     .................................           ............................",
".................................                           ............         ............................",
".................................                             ............       ............................",
"..................................                             ............      ............................",
"..................................                               ...........     ............................",
"...................................                               ..........     ............................",
"...........................................................         ........     ............................",
"............................................................         .......     ............................",
".............................................................          .....     ............................",
"...............................................................        .....     ............................",
"................................................................       .....     ............................",
"....................................  ...........................     ......     ............................",
"....................................   ..........................     ......     ............................",
"...................................      ........................     ......     ............................",
"..................................        .......................    .......     ............................",
".................................          .....................     .......     ............................",
".................................           ....................     .......     ............................",
"................................             ...................    ........     ............................",
"...............................       .       .................     .......      ............................",
"..............................       ...        ...                 .......      ............................",
"..............................       .....                         .......      .............................",
".............................       .......                        .......      .............................",
"..............................       .......                      ........     ..............................",
"...............................       .......           .................      ..............................",
"................................        .................................     ...............................",
"..................................       ................................     ...............................",
"...................................       ..............................     ................................",
"....................................       .............................     ................................",
".....................................                                       .................................",
"......................................                                      .................................",
".......................................                                    ..................................",
".........................................                                  ..................................",
".............................................................................................................",
".............................................................................................................",
".............................................................................................................",
".............................................................................................................",
".............................................................................................................",
".............................................................................................................",
".............................................................................................................",
".............................................................................................................",
".............................................................................................................",
".............................................................................................................",
".............................................................................................................",
".............................................................................................................",
".............................................................................................................",
".............................................................................................................",
".............................................................................................................",
".............................................................................................................",
".............................................................................................................",
".............................................................................................................",
".............................................................................................................",
".............................................................................................................",
".............................................................................................................",
".............................................................................................................",
".............................................................................................................",
".............................................................................................................",
".............................................................................................................",
"............................................................................................................."
};
