/* XPM */
static char *a59ec2925dca4bb5aaef25652b7499fc[] = {
/* columns rows colors chars-per-pixel */
"43 53 20 1 ",
"  c None",
". c black",
"X c #181818",
"o c #391800",
"O c #313131",
"+ c #353535",
"@ c #5A3108",
"# c #6B3118",
"$ c #187B00",
"% c gray29",
"& c gray32",
"* c gray42",
"= c #8C4221",
"- c #945A21",
"; c #AD5229",
": c #E79429",
"> c gray55",
", c #FFD69C",
"< c #CECECE",
"1 c white",
/* pixels */
"                  %....%                   ",
"                %..=;;=...%                ",
"        %..%  %..=;;;;;;;=.XXX.%           ",
"       %.OO.%%.==;;;;;;;;=XXOOX..%         ",
"      %...OOX.==;;;;;;;;=XOOOOOOX.%        ",
"         .OOX==;;;;;;;;=XOOO.......%       ",
"         %.OX==;;;;;;;=XOOXXXXXX.%         ",
"          .&OOX==X;;;=XOOXXX;;;;.%         ",
"         %.O&XX==X===X&OXX;;;;;;=.         ",
"         .XX&XX==X=XX&OXX;;;;;;;;.%        ",
"        %.**X&X##XX&&OX*=;;;;;;;;=.        ",
"       %.*<<XOO..O&OXX>>*=;;;;;;;;.%       ",
"       .*<<<*.......><<<<=;;;;;;;;=.       ",
"      %.><1<<*....><<<<<<*=;;;;;;;;.%      ",
"      .*<<11<<...><<<11<<>=;;;;;;;;=.      ",
"     %.><11..1.;.><<1111<>=;;;;;;;;=.%     ",
"     .X><1..+..;.<..1111<<=;;;;;;;;;=.%    ",
"    %.X><1.++..;...+.111<<=;;;;;;;;;==.    ",
"   %.;=><1.++..;..++.111<<=;;;;;;;;;==.%   ",
"   .X;=*<1.++..;..++.111<>=;;;;;;;;;;==.%  ",
"  %.;;;=<<1..=;;..++.111<*=;;;;;;;;;;===.  ",
" %.;;;;=*<<<*=;;.>..11<<<=;;;;;;;;;;;===.% ",
" .=;;;;;=*>*=;;;;=<<<<<1*=;;;;;;;;;;;====. ",
"%.;;;;;;;===;;;;;;=*><<*=;;;;;;;;;;;;====.%",
".=;;;;;;;;;;;;;;;;;=====;;;;;;;;;;;;;=====.",
".=;;;;;;;;;;;;;;;;;;;;;;;;;;;;;;;;;;;=====.",
".=<;;;;;;;;;;;;;;;;;;;;;;;;;;;;;;;;;=====#.",
".=<=;=#############=;;;;;;;;<;;;;;;;=====#.",
".>>>##=;;;;;;;;;;;=###=;;;;=<=;;;;;======#.",
".##=;;;;;;;;;;;;;;;;;=###;=>>>;;;=======##.",
".##======================#****;=========##.",
"%.###=====================####========####.",
" %.###==============================#####. ",
"  %.######=======================#######.% ",
"   %...###############################..%  ",
"      %..................##########...%    ",
"            .;;;;;;;;;;;;..........%       ",
"           %.::::::::::::::::;.%           ",
"           .-:::::::::::::::::;.           ",
"           .;::,,,,,,,::::::::;.           ",
"           .;:,,,,,,,,,,,:::::;.           ",
"        %...;:,,,,,,,,,,,:::::;.           ",
"      %..ooo.::,,,,,,,,,:::::;oo.%         ",
"      .ooOOo.;:::,,,,,::::;oooooo..%       ",
"     %.@@@@OO.;:::::::::;oo@@@ooooo.%      ",
"     .o@=@@@@o..;::::::;o@@@@@@@oooo.      ",
"     .o@@@@@@ooo..;;;;;o@@@@@@@@@ooo.%     ",
"     .o@@@@@@ooooo.....o@@@==@@@@oooo.     ",
"     %.oo@@ooooooo.%$$.o@@@==@@@@oooo.     ",
"      %.ooooooo...%   %.o@@@@@@@ooooo.     ",
"       %.......%       %.oo@@@oooooo.%     ",
"                        %..ooooooo..%      ",
"                          %.......%        "
};
